<svg class="svg-icon" style="width: 1.1845703125em;height: 1em;vertical-align: middle;fill: currentColor;overflow: hidden;" viewBox="0 0 1213 1024" version="1.1" xmlns="http://www.w3.org/2000/svg"><path d="M1101.084444 482.797037a28.444444 28.444444 0 0 1 40.201482 40.201482L671.004444 993.336889a83.930074 83.930074 0 0 1-118.708148 0l-490.002963-490.002963a28.444444 28.444444 0 0 1 40.220445-40.220445l490.002963 490.002963c10.581333 10.56237 27.685926 10.56237 38.267259 0L1101.084444 482.797037z" fill="#0069F6" /><path d="M1124.54163 530.887111a28.444444 28.444444 0 0 1-42.401186-37.925926A254.900148 254.900148 0 0 0 1147.259259 322.37037c0-141.387852-114.612148-256-256-256S635.259259 180.982519 635.259259 322.37037a28.444444 28.444444 0 0 1-56.888889 0C578.37037 149.560889 718.449778 9.481481 891.259259 9.481481S1204.148148 149.560889 1204.148148 322.37037c0 77.975704-28.672 151.570963-79.606518 208.516741z" fill="#0069F6" /><path d="M89.088 530.887111a28.444444 28.444444 0 0 0 42.401185-37.925926A254.900148 254.900148 0 0 1 66.37037 322.37037C66.37037 180.982519 180.982519 66.37037 322.37037 66.37037S578.37037 180.982519 578.37037 322.37037a28.444444 28.444444 0 0 0 56.888889 0C635.259259 149.560889 495.179852 9.481481 322.37037 9.481481S9.481481 149.560889 9.481481 322.37037c0 77.975704 28.672 151.570963 79.606519 208.516741z" fill="#0069F6" /><path d="M578.37037 521.481481v-75.851851a28.444444 28.444444 0 0 1 56.888889 0v75.851851h75.851852a28.444444 28.444444 0 0 1 0 56.888889h-75.851852v75.851852a28.444444 28.444444 0 0 1-56.888889 0v-75.851852h-75.851851a28.444444 28.444444 0 0 1 0-56.888889h75.851851z" fill="#5ED7BC" /></svg>