<svg class="svg-icon" style="width: 1em; height: 1em;vertical-align: middle;fill: currentColor;overflow: hidden;" viewBox="0 0 1024 1024" version="1.1" xmlns="http://www.w3.org/2000/svg"><path d="M789.33 682.67c-38.77 0-74.02 14.98-100.6 39.29L419.59 560.33c4.54-15.34 7.08-31.54 7.08-48.33s-2.54-32.99-7.08-48.33l269.15-161.63c26.57 24.31 61.83 39.29 100.6 39.29 82.33 0 149.33-66.99 149.33-149.33s-67-149.33-149.33-149.33S640 109.66 640 192c0 12.75 1.78 25.07 4.8 36.9L375.66 390.51c-30.83-30.37-73.08-49.17-119.66-49.17-94.1 0-170.67 76.56-170.67 170.67S161.9 682.67 256 682.67c46.59 0 88.84-18.81 119.66-49.17L644.8 795.1c-3.02 11.83-4.8 24.14-4.8 36.9 0 82.34 67 149.33 149.33 149.33S938.67 914.34 938.67 832s-67-149.33-149.34-149.33z m0-554.67c35.29 0 64 28.71 64 64s-28.71 64-64 64-64-28.71-64-64 28.71-64 64-64zM256 597.33c-47.06 0-85.33-38.28-85.33-85.33s38.27-85.33 85.33-85.33 85.33 38.28 85.33 85.33-38.27 85.33-85.33 85.33zM789.33 896c-35.29 0-64-28.71-64-64s28.71-64 64-64 64 28.71 64 64-28.71 64-64 64z" fill="#2F3CF4" /></svg>